<svg xmlns="http://www.w3.org/2000/svg" version="1.1" xmlns:xlink="http://www.w3.org/1999/xlink" xmlns:svgjs="http://svgjs.dev/svgjs" viewBox="0 0 800 800"><defs><filter id="bbburst-blur-1" x="-100%" y="-100%" width="400%" height="400%"><feGaussianBlur in="SourceGraphic" stdDeviation="1"></feGaussianBlur></filter><filter id="bbburst-blur-2" x="-100%" y="-100%" width="400%" height="400%"><feGaussianBlur in="SourceGraphic" stdDeviation="2"></feGaussianBlur></filter><filter id="bbburst-blur-3" x="-100%" y="-100%" width="400%" height="400%"><feGaussianBlur in="SourceGraphic" stdDeviation="4"></feGaussianBlur></filter><filter id="bbburst-blur-4" x="-100%" y="-100%" width="400%" height="400%"><feGaussianBlur in="SourceGraphic" stdDeviation="12"></feGaussianBlur></filter><symbol id="bbburst-shape-1" viewBox="0 0 194 167"><path d="m97 0 96.129 166.5H.871L97 0Z"></path></symbol><symbol id="bbburst-shape-2" viewBox="0 0 126 115"><path d="m63 0 62.77 43.877-23.976 70.996H24.206L.23 43.877 63 0Z"></path></symbol><symbol id="bbburst-shape-3" viewBox="0 0 131 127"><path d="m66 0 66 63.5L66 127 0 63.5 66 0Z"></path></symbol><symbol id="bbburst-shape-4" viewBox="0 0 149 143"><path d="M71.647 2.781c.898-2.764 4.808-2.764 5.706 0l15.445 47.534a3 3 0 0 0 2.853 2.073h49.98c2.906 0 4.115 3.719 1.764 5.427L106.96 87.193a2.999 2.999 0 0 0-1.09 3.354l15.445 47.534c.898 2.764-2.266 5.062-4.617 3.354l-40.435-29.378a3 3 0 0 0-3.526 0l-40.435 29.378c-2.351 1.708-5.515-.59-4.617-3.354L43.13 90.547a3 3 0 0 0-1.09-3.354L1.605 57.815c-2.35-1.708-1.142-5.427 1.764-5.427h49.98a3 3 0 0 0 2.853-2.073L71.647 2.781Z"></path></symbol><symbol id="bbburst-shape-5" viewBox="0 0 145 145"><circle cx="72.5" cy="72.5" r="72.5"></circle></symbol><symbol id="bbburst-shape-6" viewBox="0 0 133 116"><path d="M59.7487 10.2513c-13.6683-13.66839-35.8291-13.66839-49.4974 0-13.66839 13.6683-13.66839 35.8291 0 49.4974l49.4974-49.4974ZM66.5 66.5 41.7513 91.2487 66.5 115.997l24.7487-24.7483L66.5 66.5Zm56.249-6.7513c13.668-13.6683 13.668-35.8291 0-49.4974-13.669-13.66839-35.8294-13.66839-49.4977 0l49.4977 49.4974Zm-112.4977 0 31.5 31.5 49.4974-49.4974-31.5-31.5-49.4974 49.4974Zm80.9974 31.5 31.5003-31.5-49.4977-49.4974-31.5 31.5 49.4974 49.4974Z"></path></symbol><symbol id="bbburst-shape-7" viewBox="0 0 139 124"><path fill-rule="evenodd" clip-rule="evenodd" d="M70.1641 15.0917C54.6093.764854 37.8293-2.10782 24.4032 2.82615 10.3804 7.97941.763366 21.4591 1.00047 37.0608c.1068 7.0273 2.86132 13.7317 7.0039 20.2001C12.1442 63.7249 17.853 70.2322 24.25 76.9024c3.8209 3.9842 7.8871 8.0312 12.0767 12.201h.0001c10.0335 9.9862 20.7748 20.6766 30.5497 32.8956 1.38 1.725 3.8972 2.005 5.6223.624.6706-.536 1.1228-1.244 1.3439-2.011 9.5768-11.748 20.0328-22.0735 29.8163-31.7351 4.19-4.1373 8.256-8.1528 12.078-12.1062 6.396-6.6176 12.106-13.0752 16.247-19.4911 4.144-6.4196 6.905-13.0811 7.012-20.0691.237-15.5124-9.399-28.8902-23.411-33.99923-13.32-4.85681-29.9542-2.08621-45.4209 11.88043Zm-3.7351 7.4919C52.1278 8.44857 37.6826 6.46918 27.1626 10.3352 16.2859 14.3323 8.8148 24.7824 8.99955 36.9392c.07575 4.9844 2.03755 10.2234 5.74165 16.0072 3.707 5.7881 8.9752 11.8418 15.2827 18.4187 3.5798 3.7328 7.4978 7.6329 11.6 11.7163 9.0476 9.0063 18.9911 18.9046 28.1786 29.8666 9.2999-11.068 19.4036-21.0473 28.5839-30.1144l.0007-.0006c4.1019-4.0508 8.0189-7.9196 11.5979-11.6222 6.307-6.5252 11.573-12.5298 15.278-18.2697 3.703-5.7362 5.658-10.924 5.734-15.8531.184-12.0276-7.267-22.3914-18.153-26.3608-10.71-3.90518-25.4722-1.80041-40.0023 12.867-1.5547 1.5694-4.0874 1.5813-5.6568.0265-.3146-.3116-.5666-.6625-.7559-1.0371Z"></path></symbol><symbol id="bbburst-shape-8" viewBox="0 0 87 168"><path d="m12 12 31.2546 18.0749c16.4102 9.4902 20.014 31.6325 7.4603 45.8369L36.3296 92.1884c-12.5684 14.2206-8.9394 36.3916 7.5068 45.8636L75 156" stroke-width="14" stroke-linecap="round" stroke-linejoin="round"></path></symbol><symbol id="bbburst-shape-9" viewBox="0 0 182 172"><path d="M13.5809 69.845 91 13.5967l77.419 56.2483-29.571 91.012H43.1524L13.5809 69.845Z" stroke-width="22"></path></symbol><symbol id="bbburst-shape-10" viewBox="0 0 145 145"><circle cx="72.5" cy="72.5" r="61.5" fill="none" stroke-width="22"></circle></symbol><symbol id="bbburst-shape-11" viewBox="0 0 194 167"><path d="M10.398 161 97 11l86.603 150H10.397Z" stroke-width="11"></path></symbol><symbol id="bbburst-shape-12" viewBox="0 0 170 151"><path d="M69.3728 54.2122 85 10.0031l15.627 44.2091c1.413 3.9958 5.19 6.6672 9.428 6.6673h49.312l-39.149 26.1447c-3.803 2.5401-5.399 7.3367-3.875 11.6488l15.179 42.94-40.9683-27.36c-3.3621-2.245-7.7453-2.245-11.1074 0l-40.9682 27.36 15.1785-42.94c1.5243-4.3121-.0712-9.1087-3.8746-11.6488L10.6333 60.8795h49.3112c4.2381-.0001 8.0159-2.6715 9.4283-6.6673Z" stroke-width="12"></path></symbol><symbol id="bbburst-shape-13" viewBox="0 0 159 159"><path stroke-width="22" d="M11 11h137v137H11z"></path></symbol><symbol id="bbburst-shape-14" viewBox="0 0 185 109"><path d="M168 16.5C168 58.1975 134.197 92 92.5 92 50.8025 92 17 58.1975 17 16.5" stroke-width="33" stroke-linecap="round"></path></symbol></defs><use xlink:href="#bbburst-shape-6" width="6.757870149259041" opacity="0.9296504016942101" transform="matrix(0.8247816415407776,-0.565451362875093,0.565451362875093,0.8247816415407776,140.36572737141586,64.14131859768383)" fill="#ffa6d5"></use><use xlink:href="#bbburst-shape-14" width="6.877053122207975" opacity="0.9658973726000216" transform="matrix(0.9380204143324142,-0.34658000850546183,0.34658000850546183,0.9380204143324142,266.36994268054536,38.948718183204846)" fill="none" stroke="#2c2891"></use><use xlink:href="#bbburst-shape-10" width="32.18979727649738" opacity="0.4056595148687899" transform="matrix(0.9977370294968981,0.0672370431436859,-0.0672370431436859,0.9977370294968981,282.36428881929214,234.39956161957969)" fill="none" stroke="#ffbd9b" filter="url(#bbburst-blur-2)"></use><use xlink:href="#bbburst-shape-9" width="7.65485088350955" opacity="0.9065756938804644" transform="matrix(0.9865305144938088,-0.1635773333092971,0.1635773333092971,0.9865305144938088,296.7096288092575,30.58665517364426)" fill="none" stroke="#ff5c58"></use><use xlink:href="#bbburst-shape-6" width="33.9264663711288" opacity="0.2032256942877404" transform="matrix(1.2368556074499544,-0.18079880065864495,0.18079880065864495,1.2368556074499544,116.25625051257093,-395.4648400181638)" fill="#ff5c58" filter="url(#bbburst-blur-3)"></use><use xlink:href="#bbburst-shape-13" width="9.803118498922514" opacity="0.8626257597845903" transform="matrix(0.7363190627115641,0.676634493569138,-0.676634493569138,0.7363190627115641,657.5854940038171,41.06539188821358)" fill="none" stroke="#ffa6d5"></use><use xlink:href="#bbburst-shape-8" width="6.705181220187185" opacity="0.8691885386972562" transform="matrix(0.9796815950287143,-0.20055914928517748,0.20055914928517748,0.9796815950287143,266.9410746876574,40.577506556295134)" fill="none" stroke="#ff5c58"></use><use xlink:href="#bbburst-shape-7" width="30.580782764714264" opacity="0.35528864067957233" transform="matrix(0.9325980356093195,0.3609167549139807,-0.3609167549139807,0.9325980356093195,241.07139918803048,47.56832026538757)" fill="#00a19d" filter="url(#bbburst-blur-2)"></use><use xlink:href="#bbburst-shape-6" width="15.60323467944352" opacity="0.7412181470666235" transform="matrix(0.7848544369027459,0.6196801698247844,-0.6196801698247844,0.7848544369027459,718.4456827793551,-6.403880294358714)" fill="#00a19d" filter="url(#bbburst-blur-1)"></use><use xlink:href="#bbburst-shape-11" width="32.423780585177084" opacity="0.4090425652174019" transform="matrix(0.9878893759891679,-0.15515985565774554,0.15515985565774554,0.9878893759891679,463.44952212031654,232.0477668756957)" fill="none" stroke="#ffbd9b" filter="url(#bbburst-blur-2)"></use><use xlink:href="#bbburst-shape-11" width="20.6617352507668" opacity="0.43449089802862817" transform="matrix(0.9795665530318146,0.20112028286915537,-0.20112028286915537,0.9795665530318146,711.2029418296885,-76.41384420587241)" fill="none" stroke="#ffa6d5" filter="url(#bbburst-blur-2)"></use><use xlink:href="#bbburst-shape-8" width="15.13214419630978" opacity="0.7400163472139218" transform="matrix(0.9378083147579379,-0.347153517583902,0.347153517583902,0.9378083147579379,303.29162743381164,-78.6186564517161)" fill="none" stroke="#00a19d" filter="url(#bbburst-blur-1)"></use><use xlink:href="#bbburst-shape-2" width="9.339678150324017" opacity="0.8253667369731642" transform="matrix(0.7347890361290017,0.6782957116071224,-0.6782957116071224,0.7347890361290017,746.1189402007412,95.5140796652799)" fill="#ff5c58"></use><use xlink:href="#bbburst-shape-7" width="12.493015079803278" opacity="0.7137434199267245" transform="matrix(0.975567884224033,0.21969820952989977,-0.21969820952989977,0.975567884224033,354.7167154246348,29.783903816049076)" fill="#ffa6d5" filter="url(#bbburst-blur-1)"></use><use xlink:href="#bbburst-shape-5" width="19.091597319514953" opacity="0.5525651984134501" transform="matrix(0.9810820359213781,0.1935924554117844,-0.1935924554117844,0.9810820359213781,666.215360944405,-30.046604157298646)" fill="#ffa6d5" filter="url(#bbburst-blur-2)"></use><use xlink:href="#bbburst-shape-7" width="24.313931146868704" opacity="0.27462103660801407" transform="matrix(1.1214263484267537,-0.5521801744487369,0.5521801744487369,1.1214263484267537,127.69836269540323,-366.0553968143473)" fill="#ffbd9b" filter="url(#bbburst-blur-3)"></use><use xlink:href="#bbburst-shape-12" width="16.364567544562018" opacity="0.5965026339727234" transform="matrix(0.9459682727009344,0.32425919731475705,-0.32425919731475705,0.9459682727009344,487.8528614978188,-159.4077324226396)" fill="none" stroke="#00a19d" filter="url(#bbburst-blur-1)"></use><use xlink:href="#bbburst-shape-14" width="27.003473447050546" opacity="0.39420332107987555" transform="matrix(0.8759993763606851,0.482312235606449,-0.482312235606449,0.8759993763606851,718.729477331957,-192.18381558595547)" fill="none" stroke="#2c2891" filter="url(#bbburst-blur-2)"></use><use xlink:href="#bbburst-shape-3" width="8.716077423742728" opacity="0.9023998779304335" transform="matrix(0.7103442366169691,-0.7038544348834178,0.7038544348834178,0.7103442366169691,114.36032665653948,162.86229870368493)" fill="#ffa6d5"></use><use xlink:href="#bbburst-shape-4" width="29.394144395216955" opacity="0.22021447080078704" transform="matrix(1.0396330606379298,-0.6940195236653004,0.6940195236653004,1.0396330606379298,-182.51412347523663,192.46267019916473)" fill="#00a19d" filter="url(#bbburst-blur-3)"></use><use xlink:href="#bbburst-shape-12" width="16.88581667996725" opacity="0.6518867889232045" transform="matrix(0.864851959739803,-0.5020269790899908,0.5020269790899908,0.864851959739803,53.88288925128029,-15.880772553829956)" fill="none" stroke="#ffbd9b" filter="url(#bbburst-blur-1)"></use><use xlink:href="#bbburst-shape-1" width="20.0169885342851" opacity="0.6722733022954167" transform="matrix(0.9285261976051635,0.37126688562393617,-0.37126688562393617,0.9285261976051635,657.2752909065734,-63.46888136531555)" fill="#ff5c58" filter="url(#bbburst-blur-1)"></use><use xlink:href="#bbburst-shape-3" width="10.409746783318274" opacity="0.7761183748008943" transform="matrix(0.9882031190479629,0.15314893242813613,-0.15314893242813613,0.9882031190479629,370.9353626308023,57.77489613737697)" fill="#00a19d" filter="url(#bbburst-blur-1)"></use><use xlink:href="#bbburst-shape-7" width="20.96900827009935" opacity="0.5011321981713545" transform="matrix(0.9900559386600839,0.14067422764636095,-0.14067422764636095,0.9900559386600839,423.5207878146242,-220.89533601903668)" fill="#ffa6d5" filter="url(#bbburst-blur-2)"></use><use xlink:href="#bbburst-shape-13" width="7.371778157674852" opacity="0.8993741022183084" transform="matrix(0.8180243501422229,-0.5751835903208592,0.5751835903208592,0.8180243501422229,210.31869175214504,87.80360116456109)" fill="none" stroke="#ff5c58"></use><use xlink:href="#bbburst-shape-10" width="7.415722758495253" opacity="0.8443999747439601" transform="matrix(0.9533817983264146,0.3017667089324001,-0.3017667089324001,0.9533817983264146,529.1106755145969,-51.46628226581532)" fill="none" stroke="#ff5c58"></use><use xlink:href="#bbburst-shape-12" width="22.824350714831496" opacity="0.4713958246492356" transform="matrix(0.8231047948236955,0.5678895110303078,-0.5678895110303078,0.8231047948236955,385.77148762737284,116.70623626301159)" fill="none" stroke="#00a19d" filter="url(#bbburst-blur-2)"></use><use xlink:href="#bbburst-shape-7" width="22.550282943040322" opacity="0.4652063313114976" transform="matrix(0.8181018242122551,0.5750733911602767,-0.5750733911602767,0.8181018242122551,690.5275127959306,-164.09457311445902)" fill="#2c2891" filter="url(#bbburst-blur-2)"></use><use xlink:href="#bbburst-shape-11" width="25.203121739560565" opacity="0.5293884431938221" transform="matrix(0.999006973303281,0.04455409399165803,-0.04455409399165803,0.999006973303281,608.459096263545,59.12345029481946)" fill="none" stroke="#ff5c58" filter="url(#bbburst-blur-2)"></use><use xlink:href="#bbburst-shape-3" width="19.256884682403793" opacity="0.6597454725497406" transform="matrix(0.9693378223062978,-0.2457319398175259,0.2457319398175259,0.9693378223062978,390.0657399459358,132.48977789482535)" fill="#ffa6d5" filter="url(#bbburst-blur-1)"></use><use xlink:href="#bbburst-shape-3" width="16.397990010915848" opacity="0.7036275384430218" transform="matrix(0.9979696613704885,-0.06369109030368839,0.06369109030368839,0.9979696613704885,294.1800970415661,113.53771485466473)" fill="#ffbd9b" filter="url(#bbburst-blur-1)"></use><use xlink:href="#bbburst-shape-8" width="32.46137567210985" opacity="0.31399706641408165" transform="matrix(1.0155886043883773,0.7287522120971356,-0.7287522120971356,1.0155886043883773,370.34445919514576,-67.77319168683925)" fill="none" stroke="#2c2891" filter="url(#bbburst-blur-3)"></use><use xlink:href="#bbburst-shape-14" width="14.182667918535492" opacity="0.7170235181739835" transform="matrix(0.8887193235207138,0.45845170301885113,-0.45845170301885113,0.8887193235207138,607.8125476357387,164.85092370371837)" fill="none" stroke="#2c2891" filter="url(#bbburst-blur-1)"></use><use xlink:href="#bbburst-shape-11" width="27.806051318566112" opacity="0.033719432598647514" transform="matrix(1.6884735841331873,-0.45995321032082015,0.45995321032082015,1.6884735841331873,-42.402862350238706,-635.5933635007327)" fill="none" stroke="#2c2891" filter="url(#bbburst-blur-4)"></use><use xlink:href="#bbburst-shape-6" width="7.5680150259622945" opacity="0.8840821844482967" transform="matrix(0.7545555732230266,0.6562361517914642,-0.6562361517914642,0.7545555732230266,711.4852683525805,89.95334941461334)" fill="#00a19d"></use><use xlink:href="#bbburst-shape-11" width="8.189630261918365" opacity="0.8345541429354744" transform="matrix(0.9066559894074785,-0.42187073478916054,0.42187073478916054,0.9066559894074785,158.3220393368095,66.50219543530824)" fill="none" stroke="#ffa6d5"></use><use xlink:href="#bbburst-shape-9" width="19.77388959271189" opacity="0.6073798096329376" transform="matrix(0.972677804070933,-0.2321591899274026,0.2321591899274026,0.972677804070933,444.28177093979883,111.41676063394726)" fill="none" stroke="#2c2891" filter="url(#bbburst-blur-1)"></use><use xlink:href="#bbburst-shape-11" width="11.66646257144383" opacity="0.8042503963069866" transform="matrix(0.9784184826123398,-0.2066331843692261,0.2066331843692261,0.9784184826123398,233.16420123064393,-30.38282650363425)" fill="none" stroke="#2c2891"></use><use xlink:href="#bbburst-shape-5" width="20.45859650852944" opacity="0.5571871530323219" transform="matrix(0.7829173727464127,0.6221257006842384,-0.6221257006842384,0.7829173727464127,441.5817916324422,82.01403480243823)" fill="#ffa6d5" filter="url(#bbburst-blur-1)"></use><use xlink:href="#bbburst-shape-2" width="12.01662848685087" opacity="0.7875080752982353" transform="matrix(0.9562774589629449,-0.29246097428438755,0.29246097428438755,0.9562774589629449,272.43350557523235,-76.24688099869405)" fill="#ff5c58"></use><use xlink:href="#bbburst-shape-2" width="31.08374106665904" opacity="0.23977678364347976" transform="matrix(1.179958013302103,0.4125519201799379,-0.4125519201799379,1.179958013302103,726.8474644461264,212.43406574711958)" fill="#2c2891" filter="url(#bbburst-blur-3)"></use><use xlink:href="#bbburst-shape-3" width="9.198224000891" opacity="0.8654624280730963" transform="matrix(0.9143722870459282,0.4048744505181805,-0.4048744505181805,0.9143722870459282,544.2350889071972,91.39756014795984)" fill="#ffa6d5"></use><use xlink:href="#bbburst-shape-10" width="9.641358666451012" opacity="0.8577553974265839" transform="matrix(0.9987833664783103,0.049313150844914354,-0.049313150844914354,0.9987833664783103,353.50389348106137,-17.821060632215676)" fill="none" stroke="#ffa6d5"></use><use xlink:href="#bbburst-shape-6" width="14.408937964494692" opacity="0.695311092950418" transform="matrix(0.8383858280249616,0.5450772453211559,-0.5450772453211559,0.8383858280249616,488.7384456649023,120.78573336790726)" fill="#ffa6d5" filter="url(#bbburst-blur-1)"></use><use xlink:href="#bbburst-shape-9" width="18.145074253863054" opacity="0.6348546994836071" transform="matrix(0.9953515539649693,0.09630827596588376,-0.09630827596588376,0.9953515539649693,363.9043526843741,151.51624561938058)" fill="none" stroke="#ff5c58" filter="url(#bbburst-blur-1)"></use><use xlink:href="#bbburst-shape-11" width="25.320371351792417" opacity="0.3373657693615324" transform="matrix(0.9672186094354347,-0.25394519401198357,0.25394519401198357,0.9672186094354347,12.863267521188448,-103.4014740381528)" fill="none" stroke="#ffa6d5" filter="url(#bbburst-blur-2)"></use><use xlink:href="#bbburst-shape-2" width="34.15286214821028" opacity="0.1334949090672749" transform="matrix(0.9650521602649023,-0.7944648059971224,0.7944648059971224,0.9650521602649023,203.81724507977788,-337.1021167375256)" fill="#00a19d" filter="url(#bbburst-blur-3)"></use><use xlink:href="#bbburst-shape-2" width="44.07949623958859" opacity="0.1192464962276436" transform="matrix(1.1799238787223285,0.41264953704185287,-0.41264953704185287,1.1799238787223285,262.66277475557195,-365.11073934852084)" fill="#ff5c58" filter="url(#bbburst-blur-3)"></use><use xlink:href="#bbburst-shape-9" width="37.47561638639548" opacity="0.2081693545633253" transform="matrix(1.2498435867843924,-0.019773936733105416,0.019773936733105416,1.2498435867843924,70.63420304676603,-295.18655211391285)" fill="none" stroke="#ffa6d5" filter="url(#bbburst-blur-3)"></use><use xlink:href="#bbburst-shape-9" width="25.07334578036908" opacity="0.17341199119006845" transform="matrix(1.0233082806375084,-0.7178719682357757,0.7178719682357757,1.0233082806375084,-267.9126291074987,-55.91120487938883)" fill="none" stroke="#ffa6d5" filter="url(#bbburst-blur-3)"></use><use xlink:href="#bbburst-shape-13" width="39.597165902713606" opacity="0.36114193333902145" transform="matrix(0.9901345669212399,0.14011973232806504,-0.14011973232806504,0.9901345669212399,710.9650633201737,86.53474855391931)" fill="none" stroke="#ff5c58" filter="url(#bbburst-blur-2)"></use><use xlink:href="#bbburst-shape-6" width="6.441018419786825" opacity="0.9101665649264347" transform="matrix(0.8995219206438035,0.43687562793234747,-0.43687562793234747,0.8995219206438035,562.450918239816,-0.5320653922570955)" fill="#ffa6d5"></use><use xlink:href="#bbburst-shape-1" width="30.918108703062785" opacity="0.31468541136394634" transform="matrix(1.074755796708637,0.6382789182177204,-0.6382789182177204,1.074755796708637,940.3541705768343,-103.70233658078854)" fill="#2c2891" filter="url(#bbburst-blur-3)"></use><use xlink:href="#bbburst-shape-2" width="24.95869639969626" opacity="0.5681024443914746" transform="matrix(0.900165349897117,-0.43554832435058316,0.43554832435058316,0.900165349897117,387.7396309111318,-42.82214879113434)" fill="#ffa6d5" filter="url(#bbburst-blur-1)"></use><use xlink:href="#bbburst-shape-6" width="11.90301605952077" opacity="0.6822962264375146" transform="matrix(0.9920191040248668,0.1260876570077358,-0.1260876570077358,0.9920191040248668,442.5992566374872,145.39573012673384)" fill="#ffbd9b" filter="url(#bbburst-blur-1)"></use><use xlink:href="#bbburst-shape-4" width="11.095806826098286" opacity="0.7560766936560945" transform="matrix(0.8547767540517659,0.5189958581074872,-0.5189958581074872,0.8547767540517659,520.1884322191052,-16.999034652400837)" fill="#ff5c58" filter="url(#bbburst-blur-1)"></use><use xlink:href="#bbburst-shape-12" width="15.992750817994985" opacity="0.6756106701396969" transform="matrix(0.9334129621957825,0.3588039046678488,-0.3588039046678488,0.9334129621957825,491.86147274518373,-115.38197634225395)" fill="none" stroke="#ffbd9b" filter="url(#bbburst-blur-1)"></use><use xlink:href="#bbburst-shape-11" width="10.55367811868753" opacity="0.7678079551736635" transform="matrix(0.9919015248827596,-0.12700931042744937,0.12700931042744937,0.9919015248827596,305.7986562607767,101.04893554704273)" fill="none" stroke="#ffbd9b" filter="url(#bbburst-blur-1)"></use><use xlink:href="#bbburst-shape-6" width="11.849561703167579" opacity="0.7686608343270878" transform="matrix(0.9631999961880777,-0.2687857275661916,0.2687857275661916,0.9631999961880777,388.62780368904936,37.85728133241531)" fill="#2c2891" filter="url(#bbburst-blur-1)"></use><use xlink:href="#bbburst-shape-7" width="12.970442521078404" opacity="0.7786683017043601" transform="matrix(0.996629165627197,-0.08203844355689101,0.08203844355689101,0.996629165627197,264.2523396797409,26.83510956769055)" fill="#ffa6d5"></use><use xlink:href="#bbburst-shape-2" width="6.655236928170267" opacity="0.9083680598965307" transform="matrix(0.9633918871978002,-0.2680971310578703,0.2680971310578703,0.9633918871978002,260.2165222642949,-13.434730930043827)" fill="#00a19d"></use><use xlink:href="#bbburst-shape-7" width="6.120993924321325" opacity="0.9574391777638639" transform="matrix(0.8668150405891276,0.4986298079823037,-0.4986298079823037,0.8668150405891276,583.755590358326,65.77630101913763)" fill="#ff5c58"></use><use xlink:href="#bbburst-shape-2" width="18.1004113850674" opacity="0.6564514466667728" transform="matrix(0.7545548690737465,0.6562369614377883,-0.6562369614377883,0.7545548690737465,741.6501427229605,-36.22930337301722)" fill="#ffbd9b" filter="url(#bbburst-blur-1)"></use><use xlink:href="#bbburst-shape-2" width="18.054728309565924" opacity="0.47217586213209595" transform="matrix(0.9965202849386297,-0.08335059511384582,0.08335059511384582,0.9965202849386297,279.080993555588,-221.9911511562581)" fill="#00a19d" filter="url(#bbburst-blur-2)"></use><use xlink:href="#bbburst-shape-7" width="9.909876954357069" opacity="0.8763916024003007" transform="matrix(0.99367605432922,0.11228490126777092,-0.11228490126777092,0.99367605432922,409.3029992657901,48.38185549237744)" fill="#ffbd9b"></use><use xlink:href="#bbburst-shape-8" width="18.255281213626514" opacity="0.6018032442830589" transform="matrix(0.9658893478235797,-0.2589551462337442,0.2589551462337442,0.9658893478235797,466.52158651832667,25.81537311493952)" fill="none" stroke="#ffa6d5" filter="url(#bbburst-blur-1)"></use><use xlink:href="#bbburst-shape-7" width="11.796530296844953" opacity="0.8058283821757102" transform="matrix(0.9797635958896398,-0.200158177872908,0.200158177872908,0.9797635958896398,359.760395948584,-65.22747662147952)" fill="#00a19d"></use><use xlink:href="#bbburst-shape-12" width="9.155709882873222" opacity="0.8429221386037655" transform="matrix(0.8182403839014157,-0.5748762250718531,0.5748762250718531,0.8182403839014157,234.9974845781845,91.94212273524693)" fill="none" stroke="#2c2891"></use><use xlink:href="#bbburst-shape-7" width="5.600596272150745" opacity="0.993589553166143" transform="matrix(0.8514591269237224,0.5244209713372382,-0.5244209713372382,0.8514591269237224,610.2189611572117,57.49630092527593)" fill="#2c2891"></use><use xlink:href="#bbburst-shape-8" width="36.62550703374275" opacity="0.1878713381006023" transform="matrix(1.1654552301804328,0.4519005492860949,-0.4519005492860949,1.1654552301804328,196.04807220328564,-35.44336327778615)" fill="none" stroke="#00a19d" filter="url(#bbburst-blur-3)"></use><use xlink:href="#bbburst-shape-9" width="27.879773073623568" opacity="0.06342214090435794" transform="matrix(1.7468981250759705,-0.10414864668375964,0.10414864668375964,1.7468981250759705,697.9177619068342,-510.1684200058816)" fill="none" stroke="#ff5c58" filter="url(#bbburst-blur-4)"></use><use xlink:href="#bbburst-shape-12" width="18.15445254737614" opacity="0.616774914353567" transform="matrix(0.8347272170388517,0.5506636660744686,-0.5506636660744686,0.8347272170388517,446.41778299134023,106.77225301676276)" fill="none" stroke="#ffbd9b" filter="url(#bbburst-blur-1)"></use><use xlink:href="#bbburst-shape-1" width="28.062322339199905" opacity="0.15062024739826618" transform="matrix(1.1481286094626904,-0.4942678384573175,0.4942678384573175,1.1481286094626904,305.09234559233045,310.98504283688004)" fill="#ff5c58" filter="url(#bbburst-blur-3)"></use><use xlink:href="#bbburst-shape-4" width="9.336034751510617" opacity="0.8228464203725588" transform="matrix(0.7766395068078866,0.6299452964069203,-0.6299452964069203,0.7766395068078866,680.0794399510879,159.5416608338602)" fill="#00a19d"></use><use xlink:href="#bbburst-shape-4" width="20.582851537250825" opacity="0.536777906542145" transform="matrix(0.9519807424298472,0.30615791030564105,-0.30615791030564105,0.9519807424298472,533.7354136570368,-191.30712215808447)" fill="#00a19d" filter="url(#bbburst-blur-2)"></use><use xlink:href="#bbburst-shape-6" width="38.05654918269857" opacity="0.04656056802826014" transform="matrix(1.748424049383113,-0.07425189249277038,0.07425189249277038,1.748424049383113,698.9412974528534,-67.51716233882985)" fill="#00a19d" filter="url(#bbburst-blur-4)"></use><use xlink:href="#bbburst-shape-9" width="11.066848822293883" opacity="0.7963201340301791" transform="matrix(0.861390158034293,0.5079438902493619,-0.5079438902493619,0.861390158034293,620.9382537459965,-36.28505149927389)" fill="none" stroke="#ffa6d5"></use><use xlink:href="#bbburst-shape-5" width="7.139502577299707" opacity="0.8782754912310677" transform="matrix(0.759706523920765,-0.6502660974648978,0.6502660974648978,0.759706523920765,109.19707041171989,51.35068015813175)" fill="#2c2891"></use><use xlink:href="#bbburst-shape-10" width="11.033986238366055" opacity="0.7664632324427837" transform="matrix(0.9233657654918426,-0.3839214283126999,0.3839214283126999,0.9233657654918426,184.97984801213053,-55.930407712678175)" fill="none" stroke="#ff5c58" filter="url(#bbburst-blur-1)"></use><use xlink:href="#bbburst-shape-13" width="11.251904277304211" opacity="0.826590757278768" transform="matrix(0.841253246561753,-0.5406412628992633,0.5406412628992633,0.841253246561753,143.55328952871832,136.05367270198968)" fill="none" stroke="#00a19d"></use><use xlink:href="#bbburst-shape-10" width="8.694079823671787" opacity="0.8571836653808471" transform="matrix(0.9311663040979958,0.36459472584292657,-0.36459472584292657,0.9311663040979958,549.7765178743902,89.71775605499664)" fill="none" stroke="#ffbd9b"></use><use xlink:href="#bbburst-shape-5" width="13.465740003160235" opacity="0.8165083787899534" transform="matrix(0.7401781988742326,0.6724107627866295,-0.6724107627866295,0.7401781988742326,717.1396650254619,162.5848842322639)" fill="#00a19d"></use><use xlink:href="#bbburst-shape-9" width="38.80587743828544" opacity="0.43038868082885884" transform="matrix(0.9987988985521482,-0.048997553520717975,0.048997553520717975,0.9987988985521482,617.2921486581006,5.780597968706445)" fill="none" stroke="#2c2891" filter="url(#bbburst-blur-2)"></use><use xlink:href="#bbburst-shape-12" width="7.162643408611362" opacity="0.9521363933277888" transform="matrix(0.8580583480262277,0.5135522090133592,-0.5135522090133592,0.8580583480262277,617.4843884164618,39.59658711908429)" fill="none" stroke="#ff5c58"></use><use xlink:href="#bbburst-shape-2" width="30.793773569206362" opacity="0.23701636876788457" transform="matrix(1.0736200847276247,-0.6401874051162266,0.6401874051162266,1.0736200847276247,427.21272432191904,147.75521349216672)" fill="#ffbd9b" filter="url(#bbburst-blur-3)"></use><use xlink:href="#bbburst-shape-10" width="23.92362814930158" opacity="0.17294642642801716" transform="matrix(1.0770710390618925,0.6343642304024835,-0.6343642304024835,1.0770710390618925,643.7680637511685,333.7462086013987)" fill="none" stroke="#00a19d" filter="url(#bbburst-blur-3)"></use><use xlink:href="#bbburst-shape-9" width="20.952730456348505" opacity="0.38920172592566626" transform="matrix(0.9999956853083146,-0.0029375780422184142,0.0029375780422184142,0.9999956853083146,335.12303000355257,-269.7653080893687)" fill="none" stroke="#ff5c58" filter="url(#bbburst-blur-2)"></use><use xlink:href="#bbburst-shape-12" width="29.247042685202732" opacity="0.4880833402976774" transform="matrix(0.9414176970526568,-0.3372428200511794,0.3372428200511794,0.9414176970526568,320.40015297278467,248.07493809155744)" fill="none" stroke="#00a19d" filter="url(#bbburst-blur-2)"></use><use xlink:href="#bbburst-shape-5" width="24.794827444793206" opacity="0.4520336329333621" transform="matrix(0.9684425776641268,-0.249236782532719,0.249236782532719,0.9684425776641268,499.7198791691747,142.6197405340127)" fill="#ff5c58" filter="url(#bbburst-blur-2)"></use><use xlink:href="#bbburst-shape-11" width="25.301268975212025" opacity="0.54541341226424" transform="matrix(0.7373313599590939,-0.6755312469611402,0.6755312469611402,0.7373313599590939,222.12350931291303,-64.01381860122282)" fill="none" stroke="#2c2891" filter="url(#bbburst-blur-2)"></use><use xlink:href="#bbburst-shape-1" width="7.53409349457911" opacity="0.9310194957025961" transform="matrix(0.8225843746759249,-0.5686430748184819,0.5686430748184819,0.8225843746759249,175.73772640413918,42.718690051695546)" fill="#2c2891"></use><use xlink:href="#bbburst-shape-8" width="42.628545687590396" opacity="0.2278779023628118" transform="matrix(0.959189615511588,0.8015330819715005,-0.8015330819715005,0.959189615511588,1047.1537058512363,17.307476041758605)" fill="none" stroke="#ffa6d5" filter="url(#bbburst-blur-3)"></use><use xlink:href="#bbburst-shape-12" width="16.77533924830032" opacity="0.6094281057033721" transform="matrix(0.992627951280358,-0.12120128026122189,0.12120128026122189,0.992627951280358,201.1168724981526,107.4044578016294)" fill="none" stroke="#00a19d" filter="url(#bbburst-blur-1)"></use><use xlink:href="#bbburst-shape-3" width="19.391515689678087" opacity="0.532751814543901" transform="matrix(0.9548804594466472,-0.29699041763491274,0.29699041763491274,0.9548804594466472,279.84524940665017,231.05990548926053)" fill="#2c2891" filter="url(#bbburst-blur-2)"></use><use xlink:href="#bbburst-shape-3" width="6.350987863775948" opacity="0.9433188690855855" transform="matrix(0.9839705692536865,-0.17833092508753523,0.17833092508753523,0.9839705692536865,323.95191508366077,32.44069633895708)" fill="#ffa6d5"></use><use xlink:href="#bbburst-shape-7" width="32.91460079907614" opacity="0.04355905201092314" transform="matrix(1.7338505035647676,0.23719703052146768,-0.23719703052146768,1.7338505035647676,701.2877386878376,62.994394926342466)" fill="#ff5c58" filter="url(#bbburst-blur-4)"></use><use xlink:href="#bbburst-shape-12" width="28.323512259816056" opacity="0.15741726394160105" transform="matrix(1.0869610368659488,-0.6172646955199215,0.6172646955199215,1.0869610368659488,34.38394120108131,338.7248266250411)" fill="none" stroke="#00a19d" filter="url(#bbburst-blur-3)"></use><use xlink:href="#bbburst-shape-8" width="30.683555324559794" opacity="0.11956703770055332" transform="matrix(1.2013525046484343,-0.3453290598471745,0.3453290598471745,1.2013525046484343,-23.855836810304652,217.20292091705596)" fill="none" stroke="#ffa6d5" filter="url(#bbburst-blur-3)"></use><use xlink:href="#bbburst-shape-3" width="17.636463558702154" opacity="0.5945854201901852" transform="matrix(0.9674351327486272,0.25311907064392825,-0.25311907064392825,0.9674351327486272,547.7822250348206,-163.13029850968698)" fill="#2c2891" filter="url(#bbburst-blur-1)"></use><use xlink:href="#bbburst-shape-3" width="34.03013174165891" opacity="0.020785192940335095" transform="matrix(1.65616020082923,-0.565361290847971,0.565361290847971,1.65616020082923,-216.82755631060974,-503.6029844237657)" fill="#ff5c58" filter="url(#bbburst-blur-4)"></use><use xlink:href="#bbburst-shape-11" width="15.452786940063818" opacity="0.7735104100680323" transform="matrix(0.8634617179017868,-0.5044143750113543,0.5044143750113543,0.8634617179017868,290.2121684996994,33.117190009073624)" fill="none" stroke="#ff5c58" filter="url(#bbburst-blur-1)"></use><use xlink:href="#bbburst-shape-7" width="7.884987998163359" opacity="0.9450775544426511" transform="matrix(0.819852637753205,0.572574582363828,-0.572574582363828,0.819852637753205,650.4908572818495,69.86466622501007)" fill="#ff5c58"></use><use xlink:href="#bbburst-shape-13" width="35.75867990414974" opacity="-0.09294550434187121" transform="matrix(1.6532464494323593,0.5738259121365097,-0.5738259121365097,1.6532464494323593,952.6357530080234,-614.3703331427873)" fill="none" stroke="#00a19d" filter="url(#bbburst-blur-4)"></use><use xlink:href="#bbburst-shape-2" width="8.02406628620829" opacity="0.8562222934979073" transform="matrix(0.9996080490828126,0.027995503368455493,-0.027995503368455493,0.9996080490828126,464.848228380835,-29.300103313521106)" fill="#ffa6d5"></use><use xlink:href="#bbburst-shape-14" width="19.740927237232277" opacity="0.47727931898737075" transform="matrix(0.831414313608108,0.55565298444943,-0.55565298444943,0.831414313608108,493.3415913375834,-139.92504935527973)" fill="none" stroke="#ffa6d5" filter="url(#bbburst-blur-2)"></use><use xlink:href="#bbburst-shape-9" width="14.605843269822584" opacity="0.6836717316052328" transform="matrix(0.7867793968614926,0.617234299657971,-0.617234299657971,0.7867793968614926,503.7348130579257,43.77353543792128)" fill="none" stroke="#ffa6d5" filter="url(#bbburst-blur-1)"></use><use xlink:href="#bbburst-shape-3" width="33.52158438438595" opacity="0.05389727888534268" transform="matrix(1.4300120687649895,1.0087445083798352,-1.0087445083798352,1.4300120687649895,560.5832731794906,176.20169489711736)" fill="#ffa6d5" filter="url(#bbburst-blur-4)"></use><use xlink:href="#bbburst-shape-5" width="10.60553675513563" opacity="0.8854935024853862" transform="matrix(0.98436885258614,-0.17611917004757355,0.17611917004757355,0.98436885258614,273.19128006901957,13.487615920801431)" fill="#00a19d"></use><use xlink:href="#bbburst-shape-7" width="6.144578475672475" opacity="0.933998436010551" transform="matrix(0.8320461369455959,0.5547064322629679,-0.5547064322629679,0.8320461369455959,643.506562626097,82.68590472744052)" fill="#00a19d"></use><use xlink:href="#bbburst-shape-7" width="30.124632885646257" opacity="0.21057870302654003" transform="matrix(1.1742476599831058,-0.4285352179508711,0.4285352179508711,1.1742476599831058,264.92379941640127,-414.2970572168544)" fill="#ffa6d5" filter="url(#bbburst-blur-3)"></use><use xlink:href="#bbburst-shape-5" width="11.182436198166696" opacity="0.8144936275879657" transform="matrix(0.8075015525651459,-0.5898654444912661,0.5898654444912661,0.8075015525651459,135.9269628625763,0.22852753379578417)" fill="#ffa6d5"></use><use xlink:href="#bbburst-shape-9" width="19.34073240192049" opacity="0.6713356026658857" transform="matrix(0.9999989867154276,0.0014235758209333457,-0.0014235758209333457,0.9999989867154276,532.0901703431333,-44.180541703196866)" fill="none" stroke="#00a19d" filter="url(#bbburst-blur-1)"></use><use xlink:href="#bbburst-shape-12" width="19.389479178776515" opacity="0.2882182321865223" transform="matrix(1.2158564413051742,-0.2901604972023543,0.2901604972023543,1.2158564413051742,294.40969114563865,235.95429026581104)" fill="none" stroke="#2c2891" filter="url(#bbburst-blur-3)"></use><use xlink:href="#bbburst-shape-14" width="16.486743358236396" opacity="0.6375438383400931" transform="matrix(0.9485807138652058,0.31653535234310964,-0.31653535234310964,0.9485807138652058,580.4930834321677,168.9621963961809)" fill="none" stroke="#00a19d" filter="url(#bbburst-blur-1)"></use><use xlink:href="#bbburst-shape-6" width="5.859454208327399" opacity="0.9432019880215629" transform="matrix(0.9289022573361213,-0.37032498743111886,0.37032498743111886,0.9289022573361213,233.3339500387699,9.445141703694162)" fill="#00a19d"></use><use xlink:href="#bbburst-shape-1" width="28.04035962760684" opacity="0.3205078738715965" transform="matrix(1.1241599207111646,0.5465935168538577,-0.5465935168538577,1.1241599207111646,393.03187372036797,165.13119952299894)" fill="#ffa6d5" filter="url(#bbburst-blur-3)"></use><use xlink:href="#bbburst-shape-9" width="23.559820841590128" opacity="0.46310544116137864" transform="matrix(0.7944581890432303,-0.6073188502443762,0.6073188502443762,0.7944581890432303,308.75998256901056,-90.76877628889784)" fill="none" stroke="#2c2891" filter="url(#bbburst-blur-2)"></use><use xlink:href="#bbburst-shape-2" width="31.76037673875922" opacity="0.45736398399157063" transform="matrix(0.9828813686860322,-0.18423955897111824,0.18423955897111824,0.9828813686860322,69.75710549745716,-29.88493956860185)" fill="#2c2891" filter="url(#bbburst-blur-2)"></use><use xlink:href="#bbburst-shape-1" width="38.52972268375136" opacity="0.12690947925631124" transform="matrix(1.159031164935048,0.46813113409525087,-0.46813113409525087,1.159031164935048,199.43080269299134,71.63105286506277)" fill="#00a19d" filter="url(#bbburst-blur-3)"></use><use xlink:href="#bbburst-shape-9" width="36.66032289897018" opacity="0.13745540254831012" transform="matrix(1.0647747854471439,0.6547935982246533,-0.6547935982246533,1.0647747854471439,919.2895337919867,233.99786676047125)" fill="none" stroke="#2c2891" filter="url(#bbburst-blur-3)"></use><use xlink:href="#bbburst-shape-13" width="34.191276389056036" opacity="0.2917654990520916" transform="matrix(1.1715217288065147,0.4359321494615821,-0.4359321494615821,1.1715217288065147,253.40365789652742,28.855681955281284)" fill="none" stroke="#ffbd9b" filter="url(#bbburst-blur-3)"></use><use xlink:href="#bbburst-shape-4" width="22.729866669612385" opacity="0.3539735579840113" transform="matrix(0.7407500285252403,-0.6717807642675219,0.6717807642675219,0.7407500285252403,-44.49425792687356,-126.34362367824912)" fill="#00a19d" filter="url(#bbburst-blur-2)"></use><use xlink:href="#bbburst-shape-3" width="45.47678862243209" opacity="-0.09226015903353235" transform="matrix(1.2509523442988308,-1.2237721325039475,1.2237721325039475,1.2509523442988308,230.02936204729497,274.5670045719791)" fill="#2c2891" filter="url(#bbburst-blur-4)"></use><use xlink:href="#bbburst-shape-7" width="20.10011858197133" opacity="0.4175059586651899" transform="matrix(0.9369801548694341,0.3493825831103366,-0.3493825831103366,0.9369801548694341,538.4552592515083,283.659772285872)" fill="#ffa6d5" filter="url(#bbburst-blur-2)"></use><use xlink:href="#bbburst-shape-7" width="32.47984747155819" opacity="0.32102522023849855" transform="matrix(1.2288015765381435,0.22923063821699982,-0.22923063821699982,1.2288015765381435,243.72880515107494,-298.8277280746912)" fill="#ffbd9b" filter="url(#bbburst-blur-3)"></use><use xlink:href="#bbburst-shape-11" width="17.34534624742409" opacity="0.5761577723372548" transform="matrix(0.9175425424949107,-0.39763762738450054,0.39763762738450054,0.9175425424949107,372.23315981303676,-94.01721231732574)" fill="none" stroke="#2c2891" filter="url(#bbburst-blur-1)"></use><use xlink:href="#bbburst-shape-1" width="33.358139615982275" opacity="0.03270213309432579" transform="matrix(1.586345210329538,-0.7389241325498408,0.7389241325498408,1.586345210329538,323.24239206580046,-581.7701799512538)" fill="#ffa6d5" filter="url(#bbburst-blur-4)"></use><use xlink:href="#bbburst-shape-8" width="44.36993626014601" opacity="-0.1010812346244474" transform="matrix(1.2803683422619319,-1.1929614026167956,1.1929614026167956,1.2803683422619319,-453.11796094732574,-438.8541313770737)" fill="none" stroke="#ff5c58" filter="url(#bbburst-blur-4)"></use><use xlink:href="#bbburst-shape-3" width="7.984100121799578" opacity="0.8306176512439728" transform="matrix(0.8596270288835389,-0.5109220793945582,0.5109220793945582,0.8596270288835389,116.07980002878338,62.62947991919998)" fill="#ff5c58"></use><use xlink:href="#bbburst-shape-6" width="7.833193104560678" opacity="0.8963117663940068" transform="matrix(0.9999982450672881,-0.0018734626615352756,0.0018734626615352756,0.9999982450672881,428.99485578533967,32.320306430987216)" fill="#ffbd9b"></use><use xlink:href="#bbburst-shape-5" width="25.916652229645095" opacity="0.15705480390279436" transform="matrix(1.17614887836362,-0.42328928160774226,0.42328928160774226,1.17614887836362,579.0168714058846,43.201354302445054)" fill="#ffbd9b" filter="url(#bbburst-blur-3)"></use><use xlink:href="#bbburst-shape-8" width="36.270929872030536" opacity="0.33034028357839285" transform="matrix(1.2233476168546134,0.2567500892621818,-0.2567500892621818,1.2233476168546134,571.1404388017081,193.40126392051798)" fill="none" stroke="#2c2891" filter="url(#bbburst-blur-3)"></use><use xlink:href="#bbburst-shape-1" width="8.879055208314256" opacity="0.9028376613376885" transform="matrix(0.8659181805322711,-0.5001856701502764,0.5001856701502764,0.8659181805322711,224.5966216876975,22.71330299668398)" fill="#ff5c58"></use><use xlink:href="#bbburst-shape-6" width="8.520729391018644" opacity="0.8086760934485518" transform="matrix(0.8640956772416972,-0.5033275877320977,0.5033275877320977,0.8640956772416972,110.62484082192023,39.31912134212399)" fill="#2c2891"></use><use xlink:href="#bbburst-shape-13" width="15.792397794582484" opacity="0.6831987501213674" transform="matrix(0.9999998047692734,-0.0006248691182927681,0.0006248691182927681,0.9999998047692734,288.235541294131,-97.90698552808863)" fill="none" stroke="#2c2891" filter="url(#bbburst-blur-1)"></use><use xlink:href="#bbburst-shape-10" width="21.6474618655908" opacity="0.5708853380636338" transform="matrix(0.9505866835538166,0.31045926794050793,-0.31045926794050793,0.9505866835538166,329.6022555803037,-41.25337384649043)" fill="none" stroke="#00a19d" filter="url(#bbburst-blur-1)"></use><use xlink:href="#bbburst-shape-9" width="23.52387512501365" opacity="0.3889033181212248" transform="matrix(0.9903133821686891,-0.138850297434366,0.138850297434366,0.9903133821686891,352.20789900643075,-268.95632123673386)" fill="none" stroke="#2c2891" filter="url(#bbburst-blur-2)"></use><use xlink:href="#bbburst-shape-11" width="10.216341957691691" opacity="0.8595828426841303" transform="matrix(0.9421092390830077,-0.3353061013975681,0.3353061013975681,0.9421092390830077,211.0456590498745,-13.92219298353109)" fill="none" stroke="#00a19d"></use><use xlink:href="#bbburst-shape-12" width="15.955371723597962" opacity="0.7499330489043893" transform="matrix(0.9895637232751734,-0.14409593185713507,0.14409593185713507,0.9895637232751734,431.4254043702685,-51.81253730609177)" fill="none" stroke="#00a19d" filter="url(#bbburst-blur-1)"></use><use xlink:href="#bbburst-shape-3" width="14.976016577971048" opacity="0.6150455061165016" transform="matrix(0.8159374332136902,-0.5781402123020462,0.5781402123020462,0.8159374332136902,189.77460470483572,249.07000551617517)" fill="#ffa6d5" filter="url(#bbburst-blur-1)"></use><use xlink:href="#bbburst-shape-2" width="39.22670092146406" opacity="0.13676956661262052" transform="matrix(1.1459006094154027,-0.49941144694671213,0.49941144694671213,1.1459006094154027,-182.58734411513123,-193.58940296054973)" fill="#ff5c58" filter="url(#bbburst-blur-3)"></use><use xlink:href="#bbburst-shape-9" width="11.728191982940881" opacity="0.8153338837494934" transform="matrix(0.9631901055123369,-0.26882116851753585,0.26882116851753585,0.9631901055123369,274.74474953685075,98.44458358703946)" fill="none" stroke="#ffa6d5"></use><use xlink:href="#bbburst-shape-11" width="35.32925891662598" opacity="-0.09740276211058063" transform="matrix(1.4818563124849715,-0.9309145337507856,0.9309145337507856,1.4818563124849715,-343.07260292440515,177.23046610259485)" fill="none" stroke="#00a19d" filter="url(#bbburst-blur-4)"></use><use xlink:href="#bbburst-shape-9" width="14.186211488396463" opacity="0.7373398754372051" transform="matrix(0.9989387706460179,-0.04605792548761264,0.04605792548761264,0.9989387706460179,390.12464422906896,-116.50236887265248)" fill="none" stroke="#ffbd9b" filter="url(#bbburst-blur-1)"></use><use xlink:href="#bbburst-shape-3" width="8.360539894100658" opacity="0.8732910505503971" transform="matrix(0.9259576085170332,-0.37762747149726356,0.37762747149726356,0.9259576085170332,272.1234686587364,81.38853381728308)" fill="#ff5c58"></use><use xlink:href="#bbburst-shape-11" width="19.101000403422187" opacity="0.6653509179456303" transform="matrix(0.9557209281816447,-0.2942745443214815,0.2942745443214815,0.9557209281816447,416.5019775426735,66.23270206051762)" fill="none" stroke="#ffa6d5" filter="url(#bbburst-blur-1)"></use><use xlink:href="#bbburst-shape-5" width="12.382897761550693" opacity="0.7033492015490352" transform="matrix(0.9998118818276424,0.019395900501611576,-0.019395900501611576,0.9998118818276424,367.29687091484607,128.9738706060246)" fill="#ffa6d5" filter="url(#bbburst-blur-1)"></use><use xlink:href="#bbburst-shape-12" width="21.615106253333245" opacity="0.5911548668457489" transform="matrix(0.9108400994736618,-0.41275938897959646,0.41275938897959646,0.9108400994736618,110.90118326026376,-104.20899992138811)" fill="none" stroke="#ffbd9b" filter="url(#bbburst-blur-1)"></use><use xlink:href="#bbburst-shape-13" width="8.265574598307143" opacity="0.9192829901382463" transform="matrix(0.9935310488188421,0.1135607988389108,-0.1135607988389108,0.9935310488188421,455.4070144008551,35.59724385362347)" fill="none" stroke="#ffa6d5"></use><use xlink:href="#bbburst-shape-4" width="5.981565840424086" opacity="0.9143865996149536" transform="matrix(0.9789959412751918,-0.20387973652793712,0.20387973652793712,0.9789959412751918,350.4279768905716,-7.285889893817739)" fill="#2c2891"></use><use xlink:href="#bbburst-shape-4" width="11.017593220497204" opacity="0.6792848741093274" transform="matrix(0.9455414082055998,0.3255018361984632,-0.3255018361984632,0.9455414082055998,566.2395088015244,-118.30117402577116)" fill="#00a19d" filter="url(#bbburst-blur-1)"></use><use xlink:href="#bbburst-shape-12" width="14.65705155879518" opacity="0.7988690002430342" transform="matrix(0.8806987274655037,-0.4736768428376486,0.4736768428376486,0.8806987274655037,282.18356119626856,96.87362744093736)" fill="none" stroke="#ffa6d5"></use><use xlink:href="#bbburst-shape-5" width="12.061951244337493" opacity="0.8127374420527296" transform="matrix(0.7123989867224862,-0.7017746673375826,0.7017746673375826,0.7123989867224862,181.0817344851468,66.9900484258269)" fill="#00a19d"></use><use xlink:href="#bbburst-shape-4" width="9.92446261893033" opacity="0.8334260652113162" transform="matrix(0.7787409298908725,-0.6273456496324009,0.6273456496324009,0.7787409298908725,107.03054631870975,27.113220029174386)" fill="#ff5c58"></use><use xlink:href="#bbburst-shape-3" width="27.249252143849443" opacity="0.4277758582188844" transform="matrix(0.8495552985910231,0.5274995683751008,-0.5274995683751008,0.8495552985910231,814.3476298105974,-88.75710349002367)" fill="#2c2891" filter="url(#bbburst-blur-2)"></use><use xlink:href="#bbburst-shape-4" width="30.40490801586064" opacity="0.3043448732970373" transform="matrix(1.1467617750217713,-0.49743083071811733,0.49743083071811733,1.1467617750217713,68.62573518015921,-342.27436919143736)" fill="#00a19d" filter="url(#bbburst-blur-3)"></use><use xlink:href="#bbburst-shape-14" width="33.37750427156186" opacity="0.12416457884826337" transform="matrix(1.237331900965354,0.1775099063530346,-0.1775099063530346,1.237331900965354,737.8825508654736,-367.39128916250024)" fill="none" stroke="#ffa6d5" filter="url(#bbburst-blur-3)"></use><use xlink:href="#bbburst-shape-2" width="9.591786085014814" opacity="0.8577451159043971" transform="matrix(0.7913468847715436,0.6113674083252829,-0.6113674083252829,0.7913468847715436,693.2396121067502,117.17445873129435)" fill="#00a19d"></use><use xlink:href="#bbburst-shape-3" width="29.396033521436518" opacity="0.3157018817709327" transform="matrix(0.9563603218146145,-0.8049067864409188,0.8049067864409188,0.9563603218146145,161.70253241955544,-262.6042974903859)" fill="#2c2891" filter="url(#bbburst-blur-3)"></use><use xlink:href="#bbburst-shape-13" width="27.87656278638735" opacity="0.4696568066293191" transform="matrix(0.980966813966639,0.19417546162206376,-0.19417546162206376,0.980966813966639,254.9135070532999,-110.15822741120331)" fill="none" stroke="#ffbd9b" filter="url(#bbburst-blur-2)"></use><use xlink:href="#bbburst-shape-5" width="28.026726569894755" opacity="0.4798190417287439" transform="matrix(0.8463080599025072,-0.532693784217588,0.532693784217588,0.8463080599025072,7.982421969114739,232.88744018605746)" fill="#2c2891" filter="url(#bbburst-blur-2)"></use><use xlink:href="#bbburst-shape-10" width="22.117682957418797" opacity="0.5303980854599798" transform="matrix(0.9824742211069157,-0.1863985108855733,0.1863985108855733,0.9824742211069157,125.69376999802897,103.83545406310253)" fill="none" stroke="#2c2891" filter="url(#bbburst-blur-2)"></use><use xlink:href="#bbburst-shape-4" width="30.759540962465515" opacity="0.24850425938427356" transform="matrix(1.1765031944582542,-0.4223034849838713,0.4223034849838713,1.1765031944582542,512.6266469940844,-220.86162821332954)" fill="#2c2891" filter="url(#bbburst-blur-3)"></use><use xlink:href="#bbburst-shape-7" width="8.699293162274415" opacity="0.8128028460119833" transform="matrix(0.9827581967936744,0.18489544784781892,-0.18489544784781892,0.9827581967936744,409.7848326115695,-53.17750095521046)" fill="#2c2891"></use><use xlink:href="#bbburst-shape-7" width="26.114155179209853" opacity="0.14407573816092678" transform="matrix(1.1181783320842027,-0.5587282144812367,0.5587282144812367,1.1181783320842027,43.19521237791321,-406.3837238977615)" fill="#00a19d" filter="url(#bbburst-blur-3)"></use><use xlink:href="#bbburst-shape-10" width="19.933476436410416" opacity="0.5971985942833458" transform="matrix(0.9908283568761852,0.13512648596792204,-0.13512648596792204,0.9908283568761852,412.32319720540005,180.76196851664395)" fill="none" stroke="#ffa6d5" filter="url(#bbburst-blur-1)"></use><use xlink:href="#bbburst-shape-13" width="14.863563660960304" opacity="0.7388102316050869" transform="matrix(0.9826506642238205,-0.185466094207228,0.185466094207228,0.9826506642238205,212.7638473966473,-42.98662218220943)" fill="none" stroke="#00a19d" filter="url(#bbburst-blur-1)"></use><use xlink:href="#bbburst-shape-3" width="18.083541436105314" opacity="0.5800986872328926" transform="matrix(0.9882642445590013,-0.15275399479629448,0.15275399479629448,0.9882642445590013,178.41057155274171,-106.8600788636681)" fill="#2c2891" filter="url(#bbburst-blur-1)"></use><use xlink:href="#bbburst-shape-8" width="12.424865725830939" opacity="0.7020692828124818" transform="matrix(0.9423012554414691,-0.3347661034116672,0.3347661034116672,0.9423012554414691,249.87435442550267,-108.50832642803243)" fill="none" stroke="#ffbd9b" filter="url(#bbburst-blur-1)"></use><use xlink:href="#bbburst-shape-12" width="35.88678752951949" opacity="0.3304845999740387" transform="matrix(1.2321310725398695,-0.21060156713982622,0.21060156713982622,1.2321310725398695,515.3533215015109,114.8382241163182)" fill="none" stroke="#00a19d" filter="url(#bbburst-blur-3)"></use><use xlink:href="#bbburst-shape-5" width="16.985667322798264" opacity="0.7045397284334313" transform="matrix(0.9673738418731692,-0.2533532120568922,0.2533532120568922,0.9673738418731692,191.6507497332578,104.18359452801269)" fill="#ffa6d5" filter="url(#bbburst-blur-1)"></use><use xlink:href="#bbburst-shape-9" width="9.771687221115702" opacity="0.8300366520971779" transform="matrix(0.9911529416211367,-0.13272470122689156,0.13272470122689156,0.9911529416211367,286.6436454764676,56.83721523659722)" fill="none" stroke="#2c2891"></use><use xlink:href="#bbburst-shape-9" width="15.695684706078532" opacity="0.7191409172980203" transform="matrix(0.7483151435961551,0.6633433845789567,-0.6633433845789567,0.7483151435961551,767.0852272996538,161.77036001282363)" fill="none" stroke="#00a19d" filter="url(#bbburst-blur-1)"></use><use xlink:href="#bbburst-shape-13" width="20.031619768589476" opacity="0.6053619567909854" transform="matrix(0.9254873615234365,0.37877848890926746,-0.37877848890926746,0.9254873615234365,429.5750351620695,163.28241460912972)" fill="none" stroke="#ffa6d5" filter="url(#bbburst-blur-1)"></use><use xlink:href="#bbburst-shape-5" width="12.761697041179128" opacity="0.6571467516008503" transform="matrix(0.9826466682496594,0.1854872647322284,-0.1854872647322284,0.9826466682496594,313.7508175382653,-0.06705998207786479)" fill="#ffbd9b" filter="url(#bbburst-blur-1)"></use><use xlink:href="#bbburst-shape-2" width="14.09453923018163" opacity="0.7084537590236674" transform="matrix(0.9448817143749817,-0.32741189019306466,0.32741189019306466,0.9448817143749817,393.5619783246649,22.544626129032906)" fill="#ffbd9b" filter="url(#bbburst-blur-1)"></use><use xlink:href="#bbburst-shape-11" width="29.56619731284504" opacity="0.4708747606599982" transform="matrix(0.7802634672592047,0.6254509746260245,-0.6254509746260245,0.7802634672592047,468.6026254419386,-88.07863763946577)" fill="none" stroke="#ffa6d5" filter="url(#bbburst-blur-2)"></use><use xlink:href="#bbburst-shape-14" width="34.20562607834071" opacity="0.3215212421750163" transform="matrix(0.9531363714592029,-0.8087218665286504,0.8087218665286504,0.9531363714592029,-7.122195016398564,330.4108820494041)" fill="none" stroke="#ffa6d5" filter="url(#bbburst-blur-3)"></use><use xlink:href="#bbburst-shape-6" width="15.227514810308474" opacity="0.634791518658767" transform="matrix(0.9969703680032983,0.07778229440796956,-0.07778229440796956,0.9969703680032983,431.0088741986823,-163.55339631165523)" fill="#2c2891" filter="url(#bbburst-blur-1)"></use><use xlink:href="#bbburst-shape-3" width="6.032231489413457" opacity="0.8960658128917507" transform="matrix(0.9940119864100869,0.10927108891684591,-0.10927108891684591,0.9940119864100869,396.87444206908424,-14.30408394625772)" fill="#2c2891"></use><use xlink:href="#bbburst-shape-12" width="23.257876337584115" opacity="0.16555647426725573" transform="matrix(1.187942961004056,0.3889621079243017,-0.3889621079243017,1.187942961004056,528.0632335058161,-454.99922334198004)" fill="none" stroke="#00a19d" filter="url(#bbburst-blur-3)"></use><use xlink:href="#bbburst-shape-2" width="35.00295960278565" opacity="0.22708308259544285" transform="matrix(1.1913124645728719,-0.3785163295728597,0.3785163295728597,1.1913124645728719,414.7476993918289,-363.146516941826)" fill="#ffbd9b" filter="url(#bbburst-blur-3)"></use><use xlink:href="#bbburst-shape-11" width="13.113071481023939" opacity="0.755258701823873" transform="matrix(0.8950980102510608,-0.44586943385322086,0.44586943385322086,0.8950980102510608,106.12134596226738,33.77185011329789)" fill="none" stroke="#2c2891" filter="url(#bbburst-blur-1)"></use><use xlink:href="#bbburst-shape-3" width="11.436572824023115" opacity="0.7503245359527282" transform="matrix(0.7509869927468059,-0.6603169971499362,0.6603169971499362,0.7509869927468059,98.79845312846021,-4.06569366963538)" fill="#ffa6d5" filter="url(#bbburst-blur-1)"></use><use xlink:href="#bbburst-shape-5" width="33.116537009082165" opacity="0.30802241101650185" transform="matrix(0.8884342365562077,0.879309164807685,-0.879309164807685,0.8884342365562077,961.9333506356941,-185.28068290853176)" fill="#ff5c58" filter="url(#bbburst-blur-3)"></use><use xlink:href="#bbburst-shape-7" width="8.499276134109477" opacity="0.8897063788419819" transform="matrix(0.9395026186493584,0.34254171943136846,-0.34254171943136846,0.9395026186493584,544.8945978203591,-25.454683893146978)" fill="#ff5c58"></use><use xlink:href="#bbburst-shape-10" width="7.716665603336326" opacity="0.9651615528579024" transform="matrix(0.7551957581495505,-0.6554993263710692,0.6554993263710692,0.7551957581495505,132.69656139944885,84.92723563180374)" fill="none" stroke="#00a19d"></use><use xlink:href="#bbburst-shape-5" width="7.285816725874187" opacity="0.9180214428378524" transform="matrix(0.9948026721089073,0.10182162621456188,-0.10182162621456188,0.9948026721089073,419.73517940144063,34.253336182338046)" fill="#ffa6d5"></use><use xlink:href="#bbburst-shape-6" width="11.278804222706832" opacity="0.7752758716407758" transform="matrix(0.9972821249739579,0.07367742671556236,-0.07367742671556236,0.9972821249739579,360.15561103873904,79.22023327808017)" fill="#ffa6d5" filter="url(#bbburst-blur-1)"></use><use xlink:href="#bbburst-shape-10" width="19.215153461173553" opacity="0.558621063831932" transform="matrix(0.9184491049869308,0.3955391782727797,-0.3955391782727797,0.9184491049869308,652.5627520870781,198.54295114793814)" fill="none" stroke="#00a19d" filter="url(#bbburst-blur-1)"></use><use xlink:href="#bbburst-shape-14" width="19.57235815818224" opacity="0.588434725387377" transform="matrix(0.9687170066359472,0.2481680097318956,-0.2481680097318956,0.9687170066359472,413.1573498946427,-158.50042501289028)" fill="none" stroke="#2c2891" filter="url(#bbburst-blur-1)"></use><use xlink:href="#bbburst-shape-11" width="7.6201483266234" opacity="0.8589121672959141" transform="matrix(0.9804291200505837,-0.19687239663507486,0.19687239663507486,0.9804291200505837,353.83310563489556,-43.58075296775468)" fill="none" stroke="#00a19d"></use><use xlink:href="#bbburst-shape-14" width="11.574796814259088" opacity="0.7945647562237756" transform="matrix(0.8146936092585333,-0.5798916476664449,0.5798916476664449,0.8146936092585333,180.12662422189197,168.39989248271513)" fill="none" stroke="#ffa6d5"></use><use xlink:href="#bbburst-shape-5" width="27.465383443694527" opacity="0.47384637707079036" transform="matrix(0.8586075622474963,-0.5126334499926938,0.5126334499926938,0.8586075622474963,128.39650715125842,293.9466824528953)" fill="#ffa6d5" filter="url(#bbburst-blur-2)"></use><use xlink:href="#bbburst-shape-9" width="44.428797054600665" opacity="0.02561800689796445" transform="matrix(1.3674595233748041,1.0920414149342292,-1.0920414149342292,1.3674595233748041,447.53841434801404,79.76938821553438)" fill="none" stroke="#ffa6d5" filter="url(#bbburst-blur-4)"></use><use xlink:href="#bbburst-shape-3" width="33.367838097960735" opacity="0.39649536727944534" transform="matrix(0.9999984874053292,0.0017393064864112077,-0.0017393064864112077,0.9999984874053292,148.733984110627,135.83288528504124)" fill="#ffbd9b" filter="url(#bbburst-blur-2)"></use><use xlink:href="#bbburst-shape-12" width="21.847679511072094" opacity="0.5044129893779514" transform="matrix(0.7770711902568371,0.6294127145782983,-0.6294127145782983,0.7770711902568371,800.0731654897916,240.87762163867444)" fill="none" stroke="#2c2891" filter="url(#bbburst-blur-2)"></use><use xlink:href="#bbburst-shape-12" width="29.90479072071662" opacity="0.24255614584398144" transform="matrix(1.249991521007964,-0.004604064312812339,0.004604064312812339,1.249991521007964,215.2536666514026,198.68876337843597)" fill="none" stroke="#ff5c58" filter="url(#bbburst-blur-3)"></use><use xlink:href="#bbburst-shape-4" width="14.480524639015407" opacity="0.6883877124035651" transform="matrix(0.7218463834236248,0.6920533207334774,-0.6920533207334774,0.7218463834236248,598.3047315510037,-13.293367220180926)" fill="#00a19d" filter="url(#bbburst-blur-1)"></use><use xlink:href="#bbburst-shape-11" width="12.648734863382398" opacity="0.7466871569901732" transform="matrix(0.8297627841893659,0.5581162262238143,-0.5581162262238143,0.8297627841893659,670.9827101298564,165.4063137152291)" fill="none" stroke="#2c2891" filter="url(#bbburst-blur-1)"></use><use xlink:href="#bbburst-shape-10" width="29.938481437887702" opacity="0.15980979841935428" transform="matrix(1.0191765386484475,-0.7237259032731725,0.7237259032731725,1.0191765386484475,464.15208021365754,-79.6767439123268)" fill="none" stroke="#ffbd9b" filter="url(#bbburst-blur-3)"></use><use xlink:href="#bbburst-shape-14" width="17.157105131395912" opacity="0.5343660036877824" transform="matrix(0.9021608951469624,-0.43139972098696533,0.43139972098696533,0.9021608951469624,121.29211249918038,227.84055666996977)" fill="none" stroke="#ffa6d5" filter="url(#bbburst-blur-2)"></use><use xlink:href="#bbburst-shape-12" width="6.631131982231505" opacity="0.9293320765723823" transform="matrix(0.8310886731935142,0.5561399259983446,-0.5561399259983446,0.8310886731935142,589.1246264020377,74.42765820079984)" fill="none" stroke="#ffbd9b"></use><use xlink:href="#bbburst-shape-9" width="10.029714462355088" opacity="0.7582040507644454" transform="matrix(0.9698891743688032,0.24354668842380364,-0.24354668842380364,0.9698891743688032,487.9938458483016,119.46925507503528)" fill="none" stroke="#00a19d" filter="url(#bbburst-blur-1)"></use><use xlink:href="#bbburst-shape-4" width="7.03202578496589" opacity="0.9672651629947948" transform="matrix(0.8829239003113286,0.4695161192749735,-0.4695161192749735,0.8829239003113286,570.0924520371206,43.27748100951868)" fill="#00a19d"></use><use xlink:href="#bbburst-shape-1" width="10.353131182802597" opacity="0.747793960993865" transform="matrix(0.9911228432652592,-0.13294927437857057,0.13294927437857057,0.9911228432652592,419.7237919089439,86.66319582142006)" fill="#ffa6d5" filter="url(#bbburst-blur-1)"></use></svg>